Patient4_TMGait_0pt7_01_right_34_EMG.mot
version=1
nRows=36
nColumns=33
inDegrees=no
endheader
time	1LAddLong	2LGlutMax	3LGlutMed	4LIliopsoas	5LSemiMemb	6LBicFemLong	7LRecFem	8LVastMed	9LVastLat	10LGasMed	11LTibAnt	12lTibPost	13LPeroneusLong	14LSol	15LExtDigLong	16LFlexDigLong	17RAddLong	18RGlutMax	19RGlutMed	20RIliopsoas	21RSemiMemb	22RBicFemLong	23RRecFem	24RVastMed	25RVastLat	26RGasMed	27RTibAnt	28RTibPost	29RPeroneusLong	30RSol	31RExtDigLong	32RFlexDigLong
39.51	0.011749	-0.54672	-0.007782	-0.001068	-0.12955	-0.016632	-0.090027	0.005188	-0.24063	0.027313	-0.070953	0.002136	0.02243	-0.031586	0.007019	0.025482	-0.006714	-0.034027	0.25497	0.087891	0.21072	-0.093994	-0.53329	0.090332	-0.046234	-0.003052	0.10849	0.012512	-0.18662	0.070038	-0.001068	-0.010071
39.511	0.017242	-0.6311	-0.061035	0.006714	-0.058289	0.16464	-0.12253	0.006256	-0.032654	0.023193	-0.037994	-0.001678	0.034637	-0.05188	-0.015564	-0.000916	0.000153	-0.037689	0.038757	-0.000763	0.24811	-0.065613	-0.55481	0.054016	-0.057373	0.00061	0.090179	0.016632	-0.099945	0.09491	-0.00061	-0.01709
39.512	0.027466	-0.5693	-0.06073	0.002136	0.004578	-0.04776	-0.18326	-0.02655	0.092773	0.014038	-0.007477	0.01236	0.062256	-0.028534	-0.12863	0.004425	0.006561	0.019684	-0.34256	-0.037994	0.24445	-0.059509	-0.54184	0.023956	-0.043945	-0.004578	0.069122	0.008087	0.026703	0.040894	0.009003	-0.016785
39.513	0.048828	-0.55756	-0.085297	0.004883	0.062256	-0.34607	-0.037842	-0.036774	0.10559	0.006866	-0.002441	0.014038	0.094299	-0.044403	-0.027618	-0.000763	0.007935	0.02533	-0.30945	0.028839	0.23254	-0.07019	-0.53635	-0.030212	-0.0383	-0.018311	0.036011	0.00885	0.14175	0.050812	-0.000916	-0.016632
39.514	0.054932	-0.57007	0.032959	0.023041	0.24078	-0.26947	0.069122	-0.02594	0.059357	0.00824	-0.009155	0.007629	-0.028076	-0.015717	0.030212	0.012665	0.001526	0.047455	-0.036011	0.003815	0.2359	-0.066986	-0.55893	-0.011749	-0.041504	-0.010529	0.017242	0.009918	0.24765	0.10971	-0.002289	-0.015411
39.515	0.037079	-0.62683	0.032501	0.003357	0.21271	0.075836	0.15289	-0.026093	0.07843	0.016937	0.003662	0.009003	-0.060272	0.005798	0.076904	-0.001068	0.007019	0.093994	0.046082	-0.030365	0.25009	-0.073853	-0.51544	-0.030518	-0.047455	0.008698	0.025787	0.007782	0.30441	0.12177	-0.002441	-0.011444
39.516	0.005798	-0.59158	-0.048065	-0.000458	0.038452	0.28107	0.15366	0.005035	0.073547	0.026855	0.006561	0.010986	-0.033569	0.017242	-0.025787	-0.004578	-0.031586	-0.003357	-0.041656	-0.018768	0.24506	-0.083466	-0.55573	0.002594	-0.058746	-0.002594	0.016632	0.009613	0.22293	0.068512	-0.00351	-0.00473
39.517	-0.030365	-0.55039	0.027313	0.012512	-0.06073	0.32105	0.059204	0.02243	0.004425	0.01236	0.007172	0.011597	0.029755	0.014648	-0.094147	-0.003662	-0.050201	-0.018005	-0.14572	0.037994	0.24841	-0.094604	-0.54581	-0.046844	-0.056458	-0.005188	0.025024	0.010223	0.06546	0.079956	-0.001678	-0.00946
39.518	-0.053864	-0.52338	0.08667	0.031128	-0.13153	0.45059	-0.071716	0.023956	0.015411	0.005035	0.009766	0.011292	0.046234	0.039825	-0.066833	-0.018311	-0.054779	-0.052795	-0.27969	0.038452	0.25864	-0.16724	-0.5159	-0.052643	-0.046234	0.006866	0.039215	0.007782	-0.016174	0.091553	-0.006256	-0.005188
39.519	-0.051422	-0.42023	0.086365	0.023804	-0.10147	0.42572	-0.13412	0.018463	0.092468	-0.010529	0.006866	0.020752	0.10895	0.035706	0.016479	-0.013733	-0.038757	0.014496	0.074921	-0.058441	0.29419	-0.25101	-0.52414	-0.000305	-0.041351	0.021362	0.028839	0.011902	0.014038	-0.05661	-0.001678	-0.012207
39.52	-0.065765	-0.25681	0.007629	0.015411	0.032043	0.29068	-0.050964	0.015259	0.093231	0.002441	0.011444	0.018311	-0.044708	0.028381	0.058594	-0.010223	0.021362	-0.010529	-0.041809	-0.082855	0.31418	-0.30792	-0.47928	-0.019379	-0.046234	0.027924	0.041656	0.005951	-0.004272	-0.021973	-0.004578	-0.00061
39.521	-0.043793	-0.24674	-0.081329	0.02121	0.13809	0.082855	0.017548	0.005646	0.15243	0.026703	0.016327	0.005646	0.11932	0.054016	0.032349	-0.021515	0.044861	-0.04425	-0.19882	-0.089111	0.35202	-0.2504	-0.47363	-0.045776	-0.051117	0.023804	0.046997	0.005798	-0.21561	0.052338	-0.00061	-0.015259
39.522	0.002899	-0.31876	-0.098572	0.025787	0.16907	-0.55695	0.059357	-0.014648	0.20691	0.015259	0.011292	0.022583	0.076141	0.058899	0.012054	-0.033875	0.077057	-0.09613	-0.21957	-0.20218	0.38391	-0.18005	-0.47867	-0.021057	-0.049286	0.00412	0.046844	0.011749	-0.19257	0.051727	-0.001831	-0.011597
39.523	0.020142	-0.25955	-0.11795	0.024261	0.052185	-0.95276	0.016327	-0.020752	0.15915	0.03006	0.006866	0.009003	0.003967	0.036469	-0.024109	-0.027008	0.073242	-0.14679	-0.32776	-0.22232	0.37552	-0.14313	-0.43457	0.036163	-0.034637	-0.013275	0.049591	0.007935	-0.168	0.007172	-0.002441	-0.012665
39.524	0.030823	-0.18204	-0.10803	0.016632	-0.029602	-0.91095	-0.01358	-0.012207	0.072479	0.035553	-0.020905	0.002136	-0.029297	0.080261	-0.035095	-0.019073	0.053558	-0.21149	-0.28976	-0.1355	0.35782	-0.10986	-0.43335	0.010529	-0.038147	-0.014343	0.044556	0.006256	-0.24841	-0.22644	0.001373	-0.029755
39.525	0.036774	-0.15625	-0.168	0.025177	0.000916	-0.62088	-0.040588	0.000916	0.06897	0.026398	-0.017853	0.006561	-0.050659	0.16571	-0.004425	-0.024414	0.063019	-0.32822	-0.23438	-0.006409	0.35049	-0.023499	-0.41901	0.002747	-0.046387	-0.011292	0.032043	0.006409	-0.17609	-0.42541	0	-0.021057
39.526	0.034943	-0.09201	-0.21759	0.029297	0.060425	-0.2858	-0.10132	0.019684	0.076752	0.015106	-0.023651	0.029297	0.021362	0.21668	-0.035858	-0.038147	0.05249	-0.34241	-0.17624	0.12619	0.35996	0.032196	-0.39597	-0.010529	-0.0383	-0.003052	0.046387	0.004578	0.025787	-0.27725	0.001678	-0.021515
39.527	0.058746	-0.044098	-0.16007	0.031128	0.10986	-0.090637	-0.17716	0.039368	0.15228	-0.000458	-0.045624	0.031128	0.074768	0.25955	-0.081329	-0.026855	0.011292	-0.39993	-0.44907	0.24582	0.36285	0.07431	-0.35843	-0.037079	-0.054169	0.006714	0.033722	0.006866	0.14969	-0.03952	-0.001984	-0.022125
39.528	0.060272	0.054016	-0.093231	0.027618	0.087433	0.031738	-0.11627	0.032806	0.22186	-0.019226	-0.076447	0.008392	0.12344	0.28809	-0.083923	-0.045929	-0.011749	-0.47653	-0.16785	0.24857	0.36545	0.070038	-0.3746	-0.015411	-0.049896	0.006409	0.035858	0.000763	0.23636	-0.011444	-0.003662	-0.00885
39.529	0.045929	0.23422	-0.14069	0.022736	0.049438	0.06897	-0.044861	0.025482	0.19913	-0.037842	-0.012817	0.017242	0.10284	0.26932	-0.052643	-0.058594	-0.024109	-0.52689	-0.15289	0.19394	0.35934	0.019684	-0.36926	-0.019836	-0.027161	-0.012207	0.032349	0.006409	0.3038	-0.11978	0.001831	-0.013885
39.53	0.016479	0.35004	-0.17822	0.014038	0.019531	0.11337	0.007629	0.0177	0.12878	-0.036316	0.2095	0.023346	0.032654	0.22476	0.24353	-0.077667	-0.019379	-0.53955	-0.26672	0.23911	0.34836	-0.040436	-0.38162	0.00473	-0.036774	-0.015411	0.051422	0.050049	0.28153	-0.19211	-0.00824	-0.018158
39.531	-0.002136	0.43411	-0.066833	0.008087	-0.023041	0.12222	0.027924	-0.00412	0.1294	-0.053406	0.14862	0.020294	0.062561	0.088959	0.34531	-0.068359	-0.014191	-0.5188	-0.27405	0.049896	0.35843	-0.058594	-0.37399	-0.025177	-0.039368	-0.02533	0.062256	0.065002	0.19852	-0.21057	-0.00351	-0.021667
39.532	-0.016022	0.45425	-0.048981	0.027161	-0.10254	0.033569	0.077209	-0.018616	0.15823	-0.068359	0.002899	0.007172	0.11902	0.12283	-0.16785	-0.079803	-0.018616	-0.57327	-0.3743	-0.016479	0.36392	-0.074615	-0.35751	0.002747	-0.031586	-0.019836	0.036011	-0.22888	0.12024	-0.30868	-0.001068	-0.01297
39.533	-0.025787	0.53574	-0.103	0.037384	-0.15457	-0.051575	0.12177	-0.014954	0.15472	-0.040436	-0.048218	0.009766	0.040741	0.23514	0.2565	-0.073853	-0.006409	-0.65628	-0.51132	-0.061798	0.35996	-0.083771	-0.34698	-0.011597	-0.025482	-0.023651	0.032196	0.092163	0.091095	-0.54108	-0.007935	-0.01358
39.534	-0.024109	0.60867	-0.049133	0.033264	-0.14084	-0.047607	0.072632	0.009155	0.10498	-0.031586	0.095978	0.005341	-0.40756	0.24139	-0.082397	-0.075836	0.003204	-0.6633	-0.5043	-0.048676	0.35431	-0.019379	-0.33173	0.019531	-0.041199	-0.026703	0.037231	-0.014648	0.059814	-0.40344	-0.001221	-0.020142
39.535	-0.028229	0.63049	-0.045624	0.011292	-0.07782	0.02182	0.049591	0.001373	0.071411	-0.019226	0.043182	0.013885	-0.071716	0.20096	-0.19562	-0.070648	0.013733	-0.70526	-0.26764	-0.023499	0.34607	0.009003	-0.31738	0.037842	-0.01709	-0.018921	0.039215	0.026703	0.061493	0.12009	-0.000153	-0.016327
39.536	-0.049744	0.66742	-0.10346	0.009003	0.026093	0.065765	0.068512	0.00351	0.024414	-0.030975	-0.007019	0.000763	0.33661	0.21622	-0.079956	-0.040283	-0.001526	-0.72494	0.048981	-0.05722	0.336	0.028992	-0.32394	0.039825	-0.03952	-0.011292	0.028381	0.058441	0.12817	0.1593	-0.010681	-0.025787
39.537	-0.038147	0.62775	-0.13367	-0.010529	0.041962	0.043182	0.13855	0.009613	-0.085754	-0.066681	-0.062408	0.004883	0.71182	0.26001	-0.098572	-0.018463	-0.01358	-0.70419	-0.25955	-0.1535	0.30395	-0.000305	-0.28412	-0.043182	-0.034027	-0.000153	0.039978	0.02533	0.12039	0.13733	-0.003662	-0.028687
39.538	-0.046387	0.56213	-0.17014	0.001373	-0.039978	0.070038	0.091248	-0.000916	-0.23911	-0.13687	-0.080261	0.010071	0.86716	0.34027	-0.080872	-0.00412	0.006256	-0.72418	-0.69076	-0.25345	0.29984	-0.015411	-0.27725	-0.017242	-0.045776	0.000153	0.042725	0.010376	0.22263	0.21759	-0.00351	-0.023804
39.539	-0.016479	0.56747	-0.083618	0.012817	0.00061	0.075836	0.037994	0.005341	-0.25284	-0.080109	0.00412	0.002136	-0.47363	0.35141	-0.088043	-0.003815	0.00946	-0.66299	-0.69076	-0.32913	0.27618	-0.028229	-0.26138	-0.065155	-0.069275	0.00412	0.058136	0.004272	0.079041	0.098419	-0.00412	-0.022125
39.54	-0.010376	0.54108	0.008698	0.009766	0.067749	-0.007477	0.036926	0	-0.24109	-0.095367	0.020447	0.004272	-0.94574	0.30914	-0.10986	0.012512	0.011902	-0.74204	0.3093	-0.35843	0.27466	-0.039215	-0.25528	-0.054169	-0.063934	0.004272	0.080872	-0.007172	-0.35828	0.076447	0.001221	-0.032196
39.541	0.018158	0.5278	-0.032806	0.058441	0.12695	-0.13901	-0.023804	-0.010834	-0.15747	-0.085144	-0.019836	0.000458	-0.90134	0.17319	-0.2211	0.015259	0.003052	-0.77484	0.12589	0.04715	0.26199	-0.065155	-0.27618	-0.033722	-0.057983	-0.002899	0.084229	-0.003967	-0.17364	-0.24246	-0.002899	-0.030212
39.542	0.04715	0.4715	-0.05661	0.066681	0.1683	-0.062408	-0.06546	0.001831	-0.037537	-0.061188	-0.015259	0.000458	-0.18341	0.016327	-0.27863	0.020294	0.006409	-0.69794	-0.42984	0.032654	0.25635	-0.10239	-0.27832	0.001526	-0.058746	0.005341	0.043488	-0.00824	0.29694	-0.48675	-0.001526	-0.029907
39.543	0.04715	0.39368	-0.041962	0.01358	0.11948	0.047455	-0.24109	0.010834	0.026245	-0.068817	-0.016479	0.007477	-0.84381	-0.007629	-0.16541	0.028229	0.00946	-0.74982	-0.345	-0.082855	0.23865	-0.13428	-0.25971	-0.014496	-0.05127	0.029449	0.025482	-0.019989	0.61005	-0.41138	-0.002594	-0.027008
39.544	0.044403	0.39291	-0.14145	-0.016632	0.003052	0.030975	-0.36804	0	-0.003204	-0.056152	-0.018616	0.001831	-0.93918	-0.045471	0.023346	0.018005	0.021667	-0.72769	-0.43121	-0.059052	0.22964	-0.13748	-0.24506	-0.040741	-0.045166	0.061951	0.019989	-0.031281	0.22705	-0.040741	0.000153	-0.021973
39.545	0.024414	0.28976	-0.082855	-0.014648	-0.03006	0.10773	-0.19287	-0.012512	0.058594	-0.079956	0.00412	0.005341	-0.3685	0.024872	0.17517	0.028839	0.041809	-0.69885	-0.46219	-0.050354	0.22476	-0.10529	-0.26001	-0.079346	-0.038605	0.050812	0.054016	-0.020447	-0.8638	0.72022	-0.004578	-0.0177
